<?xml version="1.0" encoding="utf-8"?>
<!-- Generator: Adobe Illustrator 23.0.3, SVG Export Plug-In . SVG Version: 6.00 Build 0)  -->
<svg version="1.1" id="Layer_1" xmlns="http://www.w3.org/2000/svg" xmlns:xlink="http://www.w3.org/1999/xlink" x="0px" y="0px"
	 viewBox="0 0 115.9 132.3" style="enable-background:new 0 0 115.9 132.3;" xml:space="preserve">
<style type="text/css">
	.st0{fill:#27265F;}
	.st1{fill:#FFFFFF;}
	.st2{fill:#0099FF;}
	.st3{fill:#F49021;}
	.st4{clip-path:url(#SVGID_2_);fill:#F05A2B;}
	.st5{fill:#6E6F71;}
	.st6{clip-path:url(#SVGID_6_);fill:#6E6F71;}
	.st7{clip-path:url(#SVGID_6_);fill:#0099FF;}
	.st8{clip-path:url(#SVGID_6_);fill:#FFFFFF;}
	.st9{clip-path:url(#SVGID_8_);fill:#F05A2B;}
	.st10{opacity:0.22;fill:#FFFFFF;}
	.st11{clip-path:url(#SVGID_12_);fill:#F05A2B;}
	.st12{clip-path:url(#SVGID_16_);fill:#F05A2B;}
	.st13{clip-path:url(#SVGID_20_);fill:#F05A2B;}
	.st14{clip-path:url(#SVGID_24_);fill:#F05A2B;}
	.st15{clip-path:url(#SVGID_28_);fill:#F05A2B;}
	.st16{clip-path:url(#SVGID_32_);fill:#F05A2B;}
	.st17{fill:#CCCBCB;}
	.st18{clip-path:url(#SVGID_36_);fill:#CCCBCB;}
	.st19{clip-path:url(#SVGID_36_);fill:#0099FF;}
	.st20{clip-path:url(#SVGID_36_);fill:#FFFFFF;}
</style>
<g>
	<g>
		<circle class="st0" cx="58" cy="61.5" r="52.6"/>
		<g>
			<g>
				<path class="st1" d="M59.9,3.6c-0.8-0.4-1.7-0.5-2.5-0.3c-2.1,0.5-4.6,4.2-6,5.8c-1.9,2.2-3.5,4.6-4.9,7.1
					c-7.1,12.6-6.8,27.5-3.8,41.3c1.9,8.9,4.9,17.5,8.2,25.8l14,0.1c0.6,0,2.8-7.2,3.1-8c0.9-2.6,1.8-5.2,2.6-7.8
					c1.4-4.6,2.6-9.3,3.5-14c1.4-7.4,1.9-15.1,0.7-22.6c-0.9-5.8-2.9-11.4-6-16.5C67.3,12,63.6,5.3,59.9,3.6z M58.1,41.9
					c-4.4,0-7.9-3.6-7.9-8c0-4.4,3.6-7.9,8-7.9c4.4,0,7.9,3.6,7.9,8C66.1,38.4,62.5,41.9,58.1,41.9z"/>
				<path class="st1" d="M68.5,84.4C68.5,84.4,68.5,84.4,68.5,84.4c2.6-6.1,4.6-11.9,6.1-17.3c2.2,1.3,5.3,7.5,6.8,11.3
					c0.6,1.6,0.8,4.3,0.6,6c-0.5,3.5-1.7,9.7-4.9,14.1c-0.3,0.4-1,0.2-1-0.3c0.1-1.4,0.1-2.9,0-4.1c-0.1-2.3-1.2-4.5-2.9-6.1
					C71.7,86.4,69.8,84.9,68.5,84.4z"/>
				<path class="st2" d="M39.7,93.8c-0.1,1.3-0.1,2.7,0,4.1c0,0.5-0.7,0.8-1,0.3c-3.2-4.4-4.4-10.6-4.8-14.1c-0.2-1.7,0-4.4,0.6-5.9
					c1.5-3.7,4.6-9.9,6.9-11.2c1.4,5.4,3.4,11.2,5.9,17.3c0,0,0,0,0,0c-1.3,0.5-3.2,2-4.7,3.4C41,89.3,39.9,91.5,39.7,93.8z"/>
				<path class="st2" d="M56.1,3.8c0,0-21.5,23,1,79.5H51C51,83.3,23.1,30,56.1,3.8z"/>
			</g>
			<g>
				<polygon points="58.8,104.2 58.8,104.2 58.8,104.2 				"/>
				<path class="st3" d="M45.3,111.8c-0.5-0.9-0.7-1.9-0.5-3c0.4-1.9,1.9-3.3,3.8-3.5c2.7-0.3,4.9,1.8,4.9,4.4
					c0,1.3-0.7,2.2-1.2,3.3c-0.7,1.5-1.1,2.9-1.2,4.4c0,0.3,0,0.6,0,1c0,4.8,2.9,9,7.1,10.8c0.2,0.1,0.4-0.1,0.3-0.3
					c-0.3-0.8-0.4-1.6-0.4-2.4c0-2.4,1.2-4.3,3-5.8c1.9-1.6,3.8-3.1,5.5-4.8c1.8-1.7,3.7-3.3,4.9-5.4c1.4-2.4,2.2-5.1,2.2-8.1
					c0-6.2-3.7-12-9.4-14.6c-2.8-1.3-5.9-1.7-9-1.2c-6.4,1-11.7,6.1-13.1,12.4c-0.5,2.3-0.4,4.7,0.1,7c0.3,1.1,0.6,2.1,1.1,3.1
					C44.1,110.1,44.8,110.9,45.3,111.8z"/>
				<g>
					<defs>
						<path id="SVGID_7_" d="M45.3,111.8c-0.5-0.9-0.7-1.9-0.5-3c0.4-1.9,1.9-3.3,3.8-3.5c2.7-0.3,4.9,1.8,4.9,4.4
							c0,1.3-0.7,2.2-1.2,3.3c-0.7,1.5-1.1,2.9-1.2,4.4c0,0.3,0,0.6,0,1c0,4.8,2.9,9,7.1,10.8c0.2,0.1,0.4-0.1,0.3-0.3
							c-0.3-0.8-0.4-1.6-0.4-2.4c0-2.4,1.2-4.3,3-5.8c1.9-1.6,3.8-3.1,5.5-4.8c1.8-1.7,3.7-3.3,4.9-5.4c1.4-2.4,2.2-5.1,2.2-8.1
							c0-6.2-3.7-12-9.4-14.6c-2.8-1.3-5.9-1.7-9-1.2c-6.4,1-11.7,6.1-13.1,12.4c-0.5,2.3-0.4,4.7,0.1,7c0.3,1.1,0.6,2.1,1.1,3.1
							C44.1,110.1,44.8,110.9,45.3,111.8z"/>
					</defs>
					<clipPath id="SVGID_2_">
						<use xlink:href="#SVGID_7_"  style="overflow:visible;"/>
					</clipPath>
					<path class="st4" d="M53.1,111.6c0,0,15.5-11.3,6-25.2L78,87.5l-0.2,44.8l-26.5-0.1C51.3,132.2,45.1,115.7,53.1,111.6z"/>
				</g>
				<g>
					<defs>
						<path id="SVGID_9_" d="M45.3,111.8c-0.5-0.9-0.7-1.9-0.5-3c0.4-1.9,1.9-3.3,3.8-3.5c2.7-0.3,4.9,1.8,4.9,4.4
							c0,1.3-0.7,2.2-1.2,3.3c-0.7,1.5-1.1,2.9-1.2,4.4c0,0.3,0,0.6,0,1c0,4.8,2.9,9,7.1,10.8c0.2,0.1,0.4-0.1,0.3-0.3
							c-0.3-0.8-0.4-1.6-0.4-2.4c0-2.4,1.2-4.3,3-5.8c1.9-1.6,3.8-3.1,5.5-4.8c1.8-1.7,3.7-3.3,4.9-5.4c1.4-2.4,2.2-5.1,2.2-8.1
							c0-6.2-3.7-12-9.4-14.6c-2.8-1.3-5.9-1.7-9-1.2c-6.4,1-11.7,6.1-13.1,12.4c-0.5,2.3-0.4,4.7,0.1,7c0.3,1.1,0.6,2.1,1.1,3.1
							C44.1,110.1,44.8,110.9,45.3,111.8z"/>
					</defs>
					<clipPath id="SVGID_4_">
						<use xlink:href="#SVGID_9_"  style="overflow:visible;"/>
					</clipPath>
				</g>
			</g>
		</g>
	</g>
</g>
</svg>
