<?xml version="1.0" encoding="utf-8"?>
<!-- Generator: Adobe Illustrator 24.3.0, SVG Export Plug-In . SVG Version: 6.00 Build 0)  -->
<svg version="1.1" id="Layer_1" xmlns="http://www.w3.org/2000/svg" xmlns:xlink="http://www.w3.org/1999/xlink" x="0px" y="0px"
	 viewBox="0 0 498.1 76.3" style="enable-background:new 0 0 498.1 76.3;" xml:space="preserve">
<style type="text/css">
	.st0{fill:#27265F;}
	.st1{fill:#FFFFFF;}
	.st2{fill:#0099FF;}
	.st3{fill:#F49021;}
	.st4{clip-path:url(#SVGID_2_);fill:#F05A2B;}
	.st5{opacity:0.6;}
	.st6{clip-path:url(#SVGID_4_);fill:#F05A2B;}
	.st7{clip-path:url(#SVGID_6_);fill:#F05A2B;}
</style>
<g>
	<g>
		<g>
			<g>
				<path class="st0" d="M326.9,12.6h4.7v36.1h-4.7V12.6z"/>
				<path class="st0" d="M339.1,53.6c2.3,1.5,5,2.5,7.8,2.5c4.7,0,7.8-2.8,7.8-7.4V47l-0.1-0.1c-1.7,1.2-4.1,1.9-6.7,1.9
					c-6.7,0-12-5-12-12.3c0-6.9,4.7-12.8,12.7-12.8c2.5,0,4.6,0.6,6.2,1.4l4.3-0.8v24.4c0,7.2-4.8,11.6-12.3,11.6
					c-3,0-5.8-0.8-7.8-1.8V53.6L339.1,53.6z M348.6,44.9c2.2,0,4.6-0.8,6.1-2V29.3c-1.5-1-3.9-1.7-6.2-1.7c-4.9,0-8.1,3.8-8.1,8.6
					C340.4,41.2,343.8,44.9,348.6,44.9z"/>
				<path class="st0" d="M363.6,24.2h4.5v3.1l0.1,0.1c2.1-2.1,5.1-3.7,8.6-3.7c2.7,0,5,1,6.5,2.7c1.3,1.5,2,3.5,2,7.2v15.1h-4.5
					V34.4c0-2.5-0.4-4-1.2-5c-1-1.2-2.6-1.6-3.9-1.6c-2.8,0-5.9,1.7-7.7,4.1v16.8h-4.5L363.6,24.2L363.6,24.2z"/>
				<path class="st0" d="M392.1,12.6c1.7,0,3.2,1.4,3.2,3.2s-1.4,3.2-3.2,3.2c-1.7,0-3.2-1.4-3.2-3.2S390.4,12.6,392.1,12.6z
					 M389.9,24.2h4.5v24.5h-4.5V24.2L389.9,24.2z"/>
				<path class="st0" d="M403.1,40.2v-12h-4.5v-4h4.5v-6.7l4.5-0.8v7.4h7.4v4h-7.4v11.1c0,3.1,0.5,5.9,3.7,5.9
					c1.3,0,2.8-0.5,3.7-1.1v4.2c-1,0.5-2.8,0.9-4.4,0.9c-1.8,0-4-0.5-5.6-2.3C403.8,45.6,403.1,43.6,403.1,40.2z"/>
				<path class="st0" d="M423.5,37.8c0.7,4.8,4.2,7.5,9.1,7.5c3.4,0,6.2-1.3,8.5-3.1V47c-2.2,1.4-5.6,2.3-8.8,2.3
					c-7.6,0-13.3-5.1-13.3-12.8s5.7-12.8,12.2-12.8c6,0,11.2,4.2,11.2,11.9c0,0.8-0.1,1.6-0.2,2.2L423.5,37.8L423.5,37.8z
					 M423.6,34.2h14.5c-0.4-4.9-4-6.5-6.9-6.5C427.9,27.7,424.4,29.7,423.6,34.2z"/>
				<path class="st0" d="M453.1,31.7V12.6h4.7v18.6c0,4.4,0.3,7.2,1.4,9.3c1.2,2.3,3.8,4.3,8.6,4.3c4.4,0,7.1-1.7,8.5-4.3
					c1.2-2.1,1.3-5,1.3-9.1V12.6h4.6v18.6c0,5.2-0.3,9.3-2.4,12.5c-2.3,3.5-6.6,5.7-12.2,5.7c-5.7,0-9.9-2.2-12.1-5.7
					C453.4,40.4,453.1,36.2,453.1,31.7z"/>
				<path class="st0" d="M486.6,12.6h4.7v36.1h-4.7V12.6z"/>
			</g>
		</g>
		<g>
			<circle class="st0" cx="289.5" cy="35.7" r="26.8"/>
			<g>
				<g>
					<path class="st1" d="M290.4,6.2C290,6,289.6,5.9,289.2,6c-1.1,0.3-2.3,2.1-3.1,3c-1,1.1-1.8,2.3-2.5,3.6
						c-3.6,6.4-3.5,14-1.9,21.1c1,4.5,2.5,8.9,4.2,13.2l7.1,0.1c0.3,0,1.4-3.7,1.6-4.1c0.5-1.3,0.9-2.7,1.3-4
						c0.7-2.3,1.3-4.7,1.8-7.1c0.7-3.8,1-7.7,0.4-11.5c-0.5-3-1.5-5.8-3.1-8.4C294.3,10.5,292.4,7.1,290.4,6.2z M289.5,25.8
						c-2.2,0-4-1.8-4-4.1s1.8-4,4.1-4c2.2,0,4,1.8,4,4.1S291.8,25.8,289.5,25.8z"/>
					<path class="st1" d="M294.9,47.4L294.9,47.4c1.3-3.1,2.3-6.1,3.1-8.8c1.1,0.7,2.7,3.8,3.5,5.8c0.3,0.8,0.4,2.2,0.3,3.1
						c-0.3,1.8-0.9,4.9-2.5,7.2c-0.2,0.2-0.5,0.1-0.5-0.2c0.1-0.7,0.1-1.5,0-2.1c-0.1-1.2-0.6-2.3-1.5-3.1
						C296.5,48.4,295.5,47.7,294.9,47.4z"/>
					<path class="st2" d="M280.2,52.2c-0.1,0.7-0.1,1.4,0,2.1c0,0.3-0.4,0.4-0.5,0.2c-1.6-2.2-2.2-5.4-2.4-7.2c-0.1-0.9,0-2.2,0.3-3
						c0.8-1.9,2.3-5,3.5-5.7c0.7,2.8,1.7,5.7,3,8.8l0,0c-0.7,0.3-1.6,1-2.4,1.7C280.8,49.9,280.3,51,280.2,52.2z"/>
					<path class="st2" d="M288.5,6.3c0,0-11,11.7,0.5,40.5h-3.1C285.9,46.9,271.7,19.7,288.5,6.3z"/>
				</g>
				<g>
					<path class="st3" d="M283,61.4c-0.3-0.5-0.4-1-0.3-1.5c0.2-1,1-1.7,1.9-1.8c1.4-0.2,2.5,0.9,2.5,2.2c0,0.7-0.4,1.1-0.6,1.7
						c-0.4,0.8-0.6,1.5-0.6,2.2c0,0.2,0,0.3,0,0.5c0,2.4,1.5,4.6,3.6,5.5c0.1,0.1,0.2-0.1,0.2-0.2c-0.2-0.4-0.2-0.8-0.2-1.2
						c0-1.2,0.6-2.2,1.5-3c1-0.8,1.9-1.6,2.8-2.4c0.9-0.9,1.9-1.7,2.5-2.8c0.7-1.2,1.1-2.6,1.1-4.1c0-3.2-1.9-6.1-4.8-7.4
						c-1.4-0.7-3-0.9-4.6-0.6c-3.3,0.5-6,3.1-6.7,6.3c-0.3,1.2-0.2,2.4,0.1,3.6c0.2,0.6,0.3,1.1,0.6,1.6
						C282.4,60.5,282.8,60.9,283,61.4z"/>
					<g>
						<g>
							<defs>
								<path id="SVGID_1_" d="M283,61.4c-0.3-0.5-0.4-1-0.3-1.5c0.2-1,1-1.7,1.9-1.8c1.4-0.2,2.5,0.9,2.5,2.2
									c0,0.7-0.4,1.1-0.6,1.7c-0.4,0.8-0.6,1.5-0.6,2.2c0,0.2,0,0.3,0,0.5c0,2.4,1.5,4.6,3.6,5.5c0.1,0.1,0.2-0.1,0.2-0.2
									c-0.2-0.4-0.2-0.8-0.2-1.2c0-1.2,0.6-2.2,1.5-3c1-0.8,1.9-1.6,2.8-2.4c0.9-0.9,1.9-1.7,2.5-2.8c0.7-1.2,1.1-2.6,1.1-4.1
									c0-3.2-1.9-6.1-4.8-7.4c-1.4-0.7-3-0.9-4.6-0.6c-3.3,0.5-6,3.1-6.7,6.3c-0.3,1.2-0.2,2.4,0.1,3.6c0.2,0.6,0.3,1.1,0.6,1.6
									C282.4,60.5,282.8,60.9,283,61.4z"/>
							</defs>
							<clipPath id="SVGID_2_">
								<use xlink:href="#SVGID_1_"  style="overflow:visible;"/>
							</clipPath>
							<path class="st4" d="M287,61.3c0,0,7.9-5.8,3.1-12.8l9.7,0.6l-0.1,22.8l-13.5-0.1C286.1,71.8,283,63.4,287,61.3z"/>
						</g>
					</g>
				</g>
			</g>
		</g>
	</g>
	<g class="st5">
		<path d="M6.7,22.2h7.2c2.9,0,5.7,0.1,8.1,1.4s4,3.6,4,6.8c0,3.1-1.5,5.5-3.7,6.8c-2.4,1.4-5.6,1.6-9.1,1.6h-2.8v10.9H6.7V22.2z
			 M13.6,35.7c3.2,0,5.1-0.1,6.6-1c1.4-0.8,2.2-2.2,2.2-4.1c0-2.1-1-3.5-2.5-4.3c-1.7-0.8-3.7-0.9-6.3-0.9h-3.3v10.2H13.6z"/>
		<path d="M42.8,21.8c8,0,14,6.2,14,14.2s-6,14.2-14,14.2s-14-6.2-14-14.2S34.8,21.8,42.8,21.8z M42.8,46.8c6,0,10.4-4.8,10.4-10.8
			s-4.4-10.8-10.4-10.8c-6,0-10.4,4.8-10.4,10.8S36.8,46.8,42.8,46.8z"/>
		<path d="M57.9,22.2h3.8l4.6,14.9c0.7,2.3,1.5,4.8,2.2,7.2h0.1c0.7-2.4,1.4-4.8,2.2-7.2l4.7-14.9h2.7l4.7,14.9
			c0.8,2.4,1.5,4.7,2.2,7.2H85c0.7-2.4,1.4-4.9,2.2-7.2l4.6-14.9h3.6l-8.5,27.5h-3.8l-4.4-14c-0.7-2.2-1.3-4.3-1.9-6.4h-0.1
			c-0.6,2.1-1.3,4.3-1.9,6.4l-4.4,13.9h-3.9L57.9,22.2z"/>
		<path d="M99,22.2h15.9v3.3h-12.3v8.4h10.7V37h-10.7v9.5h12.6v3.3H99V22.2z"/>
		<path d="M119.9,22.2h7.4c2.8,0,5.4,0.1,7.7,1.4c2.3,1.3,3.8,3.4,3.8,6.4c0,3-1.4,5.2-3.5,6.5c-1,0.6-2,0.9-3.2,1.1l8.8,12.1h-4.4
			L128.2,38h-4.7v11.8h-3.6V22.2z M128.2,35c2.4,0,4.1-0.3,5.4-1.3c1-0.8,1.6-1.9,1.6-3.4c0-1.7-0.8-3.1-2.2-3.9
			c-1.5-0.8-3.2-0.9-5.9-0.9h-3.6V35H128.2z"/>
		<path d="M144.4,22.2h15.9v3.3h-12.3v8.4h10.7V37h-10.7v9.5h12.6v3.3h-16.2V22.2z"/>
		<path d="M165.4,22.2h7.6c3.6,0,7,0.6,9.7,2.2c3.9,2.4,6.2,6.6,6.2,11.4c0,4.6-2,8.6-5.5,11.1c-2.9,2.1-6.6,2.8-11.3,2.8h-6.6V22.2
			z M172.6,46.5c3.3,0,6-0.4,8.2-1.8c2.6-1.7,4.4-4.8,4.4-8.7c0-4-1.9-7-4.4-8.6c-2.4-1.6-5.3-1.9-8.3-1.9H169v21H172.6z"/>
		<path d="M202.5,22.2h7.4c3.3,0,5.5,0.3,7.3,1.4c2.1,1.3,3.2,3.2,3.2,5.6c0,3.2-1.9,5-4.2,5.8v0.1c3.2,0.8,5.3,2.9,5.3,6.4
			c0,2.6-1.1,4.9-3.2,6.3c-1.9,1.4-4.6,1.8-8.6,1.8h-7.3V22.2z M211.5,34.2c2.8,0,5.3-1.3,5.3-4.3c0-1.7-0.8-2.8-1.9-3.5
			c-1.3-0.8-2.8-0.9-5.5-0.9h-3.3v8.7H211.5z M210,46.5c3.1,0,4.9-0.3,6.1-1.2c0.9-0.6,1.8-1.7,1.8-3.6c0-3-2.4-4.7-6.5-4.7h-5.3
			v9.5H210z"/>
		<path d="M232.7,37.3l-10.6-15.1h4.2L231,29c1.2,1.7,2.4,3.5,3.6,5.2h0.1c1.1-1.7,2.3-3.5,3.6-5.3l4.6-6.7h4l-10.5,15v12.5h-3.6
			V37.3z"/>
	</g>
</g>
</svg>
